/* XPM */
static char *_6abc103ee0644c2f3f34fbbb9ad4a4eAXgFa4RHJazwEfG4[] = {
/* columns rows colors chars-per-pixel */
"64 64 80 1 ",
"  c None",
". c black",
"X c #0C0000",
"o c #100000",
"O c #110000",
"+ c #120000",
"@ c #160000",
"# c #170000",
"$ c #180000",
"% c #1A0000",
"& c #1D0000",
"* c #1F0000",
"= c #220000",
"- c #230000",
"; c #250000",
": c #280000",
"> c #2D0000",
", c #350000",
"< c #3A0000",
"1 c #3F0000",
"2 c #410000",
"3 c #430000",
"4 c #470000",
"5 c #4F0000",
"6 c #510000",
"7 c #520000",
"8 c #540000",
"9 c #590000",
"0 c #640000",
"q c #6D0000",
"w c #740000",
"e c #770000",
"r c #7E0000",
"t c #800000",
"y c #870000",
"u c #880000",
"i c #8A0000",
"p c #8D0000",
"a c #8F0000",
"s c #900000",
"d c #930000",
"f c #940000",
"g c #960000",
"h c #980000",
"j c #9A0000",
"k c #9D0000",
"l c #9E0000",
"z c #A20000",
"x c #A70000",
"c c #A80000",
"v c #B00000",
"b c #B70000",
"n c #CC0000",
"m c #CE0000",
"M c #D00000",
"N c #D10000",
"B c #D90000",
"V c #DA0000",
"C c #DB0000",
"Z c #DE0000",
"A c #E00000",
"S c #EB0000",
"D c #F50000",
"F c red",
"G c #FF0101",
"H c #FF0202",
"J c #FF0303",
"K c #FF0404",
"L c #FF0707",
"P c #FF0D0D",
"I c #FF0E0E",
"U c #FF1010",
"Y c #FF2B2B",
"T c #FF3737",
"R c #FF5252",
"E c #FF6464",
"W c #FF8D8D",
"Q c #FFCDCD",
"! c snow",
"~ c white",
/* pixels */
"         ................              ................         ",
"         ................              ................         ",
"         ................              ................         ",
"         ................              ................         ",
"         ................              ................         ",
"     ....:CCCCNCCCCNCCCCz.....    .....zCCCCSDDDDauuua5....     ",
"     ....>FFFFFFFFFFFFFFm.....    .....mFFFFFFFFFuyyuy8....     ",
"     ....>FFFFFFFFFFFFFFm.....    .....mFFFFFFFFFuyyyy8....     ",
"     ....>FFFFFFFFFFFFFFm.....    .....mFFFFFFFFFuyyyy8....     ",
"     ....>FFFFFFFFFFFFFFm.....    .....mFFFFFFFFFuyyyy8....     ",
"....oqqqqrFFFFKFFFFFFFFFCqqqq6....6qqqqCFFFFFFFFFjsssse5555o....",
"....@FFFFF~~~~!~~~~TFFFFFFFFFb....bFFFFFFFFFFFFFFFFFFFuyyyy@....",
"....@FFFFF~~~~!~~~~TFFFFFFFFFb....bFFFFFFFFFFFFFFFFFFFuyyyu@....",
"....@FFFFF~~~~!~~~~TFFFFFFFFFb....bFFFFFFFFFFFFFFFFFFFuyyyy$....",
"....@FFFFF~~~~!~~~~TFFFFFFFFFb....bFFFFFFFFFFFFFFFFFFFuyyyy@....",
"....@FFFFF~~~~!~~~~TFFFFFFFFFb....bFFFFFFFFFFFFFFFFFFFuyyyu$....",
"....@FFFFL~~~~WFFFFFFFFFFFFFFFFFFFFFFFFFFFFFFFFFFFFFFFayyyuX....",
"....@FFFFL~~~~WFFFFFFFFFFFFFFFFFFFFFFFFFFFFFFFFFFFFFFFuyyyuo....",
"....@FFFFL~~~~WFFFFFFFFFFFFFFFFFFFFFFFFFFFFFFFFFFFFFFFuyyyy@....",
"....@FFFFK~~~~WFFFFFFFFFFFFFFFFFFFFFFFFFFFFFFFFFFFFFFFuyyyy@....",
"....@FFFFK~~~~WFFFFFFFFFFFFFFFFFFFFFFFFFFFFFFFFFFFFFFFuyyyy@....",
"....$FFFFKIIIIIFFFFFFFFFFFFFFFFFFFFFFFFFFFFFFFFFFFFFFFuyyyy=....",
"....@FFFFFFFFFFFFFFFFFFFFFFFFFFFFFFFFFFFFFFFFFFFFFFFFFuyyyy&....",
"....@FFFFFFFFFFFFFFFFFFFFFFFFFFFFFFFFFFFFFFFFFFFFFFFFFayyyy@....",
"....@FFFFFFFFFFFFFFFFFFFFFFFFFFFFFFFFFFFFFFFFFFFFFFFFFfyyyyo....",
"....@FFFFFFFFFFFFFFFFFFFFFFFFFFFFFFFFFFFFFFFFFFFFFFFFFkyyyy@....",
"....$FFFFUEEEERFFFFFFFFFFFFFFFFFFFFFFFFFFFFFFFFFFFFFFFxyyyy=....",
"....@FFFFY~~~~QFFFFFFFFFFFFFFFFFFFFFFFFFFFFFFFFFFFFFFFxyyyy&....",
"....@FFFFY~~~~QFFFFFFFFFFFFFFFFFFFFFFFFFFFFFFFFFFFFFFFxyyyu&....",
"....@FFFFY~~~~QFFFFFFFFFFFFFFFFFFFFFFFFFFFFFFFFFFFFFFFxyyyy=....",
"....@FFFFY~~~~QFFFFFFFFFFFFFFFFFFFFFFFFFFFFFFFFFFFFFFFxyyyu&....",
"....@FFFFY~~~~QFFFFFFFFFFFFFFFFFFFFFFFFFFFFFFFFFFFFFFFxyyyu&....",
"     ....>FFFFFFFFFFFFFFFFFFFFFFFFFFFFFFFFFFFFFFFcyyyy$....     ",
"     ....>FFFFFFFFFFFFFFFFFFFFFFFFFFFFFFFFFFFFFFFcyyyy$....     ",
"     ....>FFFFFFFFFFFFFFFFFFFFFFFFFFFFFFFFFFFFFFFcyyyy$....     ",
"     ....>FFFFFFFFFFFFFFFFFFFFFFFFFFFFFFFFFFFFFFFcyyyy$....     ",
"     ....>FFFFFFFFFFFFFFFFFFFFFFFFFFFFFFFFFFFFFFFcuuyy$....     ",
"     ....&qqqqsFFFFFFFFFFFFFFFFFFFFFFFFFFFFFvjfjj9<<<<o....     ",
"         .....3FFFFFFFFFFFFFFFFFFFFFFFFFFFFFfuyyy-.....         ",
"         .....4FFFFFFFFFFFFFFFFFFFFFFFFFFFFFfuyyy-.....         ",
"         .....4FFFFFFFFFFFFFFFFFFFFFFFFFFFFFfyyyu-.....         ",
"         .....3FFFFFFFFFFFFFFFFFFFFFFFFFFFFFfyyyu-.....         ",
"          ....1CCCCAFFFFFFFFFFFFFFFFFFFZnnmnuewee=....          ",
"              .....0FFFFFFFFFFFFFFFFFFFkyyyy,.....              ",
"              .....0FFFFFFFFFFFFFFFFFFFkyyyy,.....              ",
"              .....0FFFFFFFFFFFFFFFFFFFkyyyy,.....              ",
"              .....0FFFFFFFFFFFFFFFFFFFkyyyy,.....              ",
"              .....0FFFFFFFFFFFFFFFFFFFkyyyy,.....              ",
"                   .....tFFFFFFFFFcyyyy3.....                   ",
"                   .....tFFFFFFFFFcyyyy3.....                   ",
"                   .....tFFFFFFFFFcyyyy3.....                   ",
"                   .....tFFFFFFFFFcyyyu3.....                   ",
"                   .....tFFFFFFFFFcyyyy3.....                   ",
"                    ....3qqqqufjjfe<<<<=....                    ",
"                        .....8uyyy6.....                        ",
"                        .....6yyyy6.....                        ",
"                        .....6yyyy6.....                        ",
"                        .....6yyyy6.....                        ",
"                        .....3ewee1.....                        ",
"                             ......                             ",
"                             ......                             ",
"                             ......                             ",
"                             ......                             ",
"                             ......                             "
};
