/* XPM */
static char *_c26e1088c7044cbd8b09ed65cc9d6deO6xK9B4woH3GI0qX[] = {
/* columns rows colors chars-per-pixel */
"64 64 71 1 ",
"  c None",
". c #1F0206",
"X c #120613",
"o c #1D131E",
"O c #221814",
"+ c #311210",
"@ c #231B24",
"# c #281820",
"$ c #2C232C",
"% c #3D2923",
"& c #2E2533",
"* c #332C35",
"= c #352D36",
"- c #352E36",
"; c #31313E",
": c #3B343B",
"> c #400B0B",
", c #45090F",
"< c #411E05",
"1 c #641318",
"2 c #4B2B13",
"3 c #57352F",
"4 c #4A3F3F",
"5 c #75502D",
"6 c #293D4B",
"7 c #453E47",
"8 c #463E47",
"9 c #4A444B",
"0 c #4D464D",
"q c #4F464F",
"w c #4A5057",
"e c #595050",
"r c #585058",
"t c #5C565D",
"y c #5C575D",
"u c #6C6262",
"i c #6D6262",
"p c #686169",
"a c #756962",
"s c #706970",
"d c #756E76",
"f c #726B7E",
"g c #7B7575",
"h c #7E767E",
"j c #7F797F",
"k c #821616",
"l c #9A1A1A",
"z c #831E20",
"x c #9E3E37",
"c c #A12929",
"v c #9A6F37",
"b c #83534E",
"n c #94605A",
"m c #877B74",
"M c #877B75",
"N c #AA8550",
"B c #D28560",
"V c #EAA377",
"C c #50D4EC",
"Z c #8F8484",
"A c #8D8787",
"S c #8D8789",
"D c #8C868C",
"F c #9C9191",
"G c #A99D97",
"H c #B6AAA4",
"J c #B0A9AA",
"K c #A8C4B1",
"L c #FDD5B7",
"P c #FBECE6",
"I c #F2F8F9",
/* pixels */
"                                                                ",
"                                                                ",
"                                                                ",
"                                                                ",
"                                                                ",
"                                    .                           ",
"                         ...        ,.                          ",
"                        .,1,,..   ..1.                          ",
"                         .111,,...,,1z.                         ",
"                       ...,z11,,.,1z11z.                        ",
"                     ..,11z1z111,,zz1zz1.,,                     ",
"                    .,1zccczcz1z1,1zzz1,1z,                     ",
"                     .,,,,11c1zcz1czczzcc1.                     ",
"                      .,1zccczccczcczcccz.                      ",
"                     .11zcccczccc,zcc1cc1.                      ",
"                    .,1zccc1z1ccz,1cc1ccz.                      ",
"                   .,1.ccz1z1,ccz.,zcz,zc1.                     ",
"                   .,.cz11z1.,zc1..1zc.,zz.                     ",
"                    .z1,1,1.L.1z.LL.1cz.,z,                     ",
"                    .1,.,1.LLL.1.LLL.1z..1z.                    ",
"                   .1...1.LLLL.,LLLLL.1.#.1,                    ",
"                  .,.x.,.LLLLLL.LLLLLV..xB,1                    ",
"                  ..L.,.VLLLLLLLLLLLLVV.VL.,                    ",
"                   #LV.VVLPPLLLLLLPPVVBVVL#.                    ",
"                   #LLVBVBxxVLLLLVxxBVBVLL#                     ",
"                    ##VBVC##CVLLVC##CVBV##                      ",
"                      ##VL66ILLLLI66LV##                        ",
"                     X++BLLLLLLLLLLLLB++X                       ",
"                   XX@+2xVLLLLLLLLLLVx2+aXX                     ",
"                  XesF+5+xxVLLLLLLVxx+5+hZ9X                    ",
"                 X@JdH+5v++xxxxxxxx++v5+dHrgX                   ",
"                 XZsZD+5vv5++++++++5vv5+FjZsX                   ",
"                X@JpMr+5vvv55555555vvv5+G*JpaX                  ",
"                XijiXe+5vvvvvvvvvvvvvv5+7XtZ0X                  ",
"                XM=SXX+5vvvvvvvvvvvvvv5+XX=Z8X                  ",
"                Xyrx#O+55vNvvvvvvvvNv55+#+x6uX                  ",
"                ##xBx##255vNvvvvvvNv552##xBx##                  ",
"                ##VLVL#<225vNNNNNNv522<#LVLV##                  ",
"                #VVLVL##ww2255555522ww##LVLVV#                  ",
"                #VLLLBx#;;;wwKKKKww;;;#xBLLLV#                  ",
"                #BLLLBx#o;;;;K&&K;;;OO#xBLLLB#                  ",
"                 xLLVLV#+ooooffffooo++#VLVLLx                   ",
"                 #xLLx#+2<<<<<+<<<<<+2+#xLLx#                   ",
"                  ####4+225555++555522+$####                    ",
"                     Xg++22555+++5522++*X                       ",
"                     X9Zj++++++i+++++ZjeX                       ",
"                     X@GrM-M-S8M-Z9m*GrgX                       ",
"                     XXXZtutiqiyiqutujXXX                       ",
"                     >klXXX-S8M-S8MXXXl##                       ",
"                     ##kll>XXXXXXXX####%#                       ",
"                     #%#####      ##O33%#                       ",
"                    #O3333%#      #%3333O#                      ",
"                    #3bbb3O#      #O3bbb3#                      ",
"                   #Obbbbb3#      #3bbbbbO#                     ",
"                   #bbbbbb3#      #3bbbbbb#                     ",
"                   #3bnnnb#        #bnnnb3#                     ",
"                    ######          ######                      ",
"                                                                ",
"                                                                ",
"                                                                ",
"                                                                ",
"                                                                ",
"                                                                ",
"                                                                "
};
