/* XPM */
static char *_3f8ad7ff06746c59e88b22eec6f92393g74zgzDxeQX7uRi[] = {
/* columns rows colors chars-per-pixel */
"64 64 239 2 ",
"   c None",
".  c #080605",
"X  c #190E07",
"o  c #381C0A",
"O  c #2E150F",
"+  c #362018",
"@  c #2C2018",
"#  c #392D2D",
"$  c #521B0D",
"%  c #541F06",
"&  c #4D1D1C",
"*  c #481A18",
"=  c #511C17",
"-  c #5F0400",
";  c #721709",
":  c #552201",
">  c #55270D",
",  c #492418",
"<  c #532D16",
"1  c #592D16",
"2  c #55261A",
"3  c #573016",
"4  c #5B3116",
"5  c #5B321C",
"6  c #49250E",
"7  c #652E16",
"8  c #602F18",
"9  c #643416",
"0  c #6B3616",
"q  c #6E3816",
"w  c #6D3A19",
"e  c #68351B",
"r  c #733D1C",
"t  c #793D18",
"y  c #692613",
"u  c #512520",
"i  c #552A23",
"p  c #5B2D25",
"a  c #582926",
"s  c #5E3329",
"d  c #593A27",
"f  c #4A3837",
"g  c #5B3B31",
"h  c #652D24",
"j  c #633326",
"k  c #63342A",
"l  c #65392C",
"z  c #6A3C2E",
"x  c #693525",
"c  c #763A27",
"v  c #683C31",
"b  c #7B421D",
"n  c #79401B",
"m  c #59492F",
"M  c #78462B",
"N  c #6D4132",
"B  c #674337",
"V  c #734534",
"C  c #784A37",
"Z  c #6F4E36",
"A  c #754C47",
"S  c #6D5851",
"D  c #7C5854",
"F  c #6F5247",
"G  c #7B665A",
"H  c #6A6E5C",
"J  c #6D6D6D",
"K  c #7C7B7B",
"L  c #777675",
"P  c #516F4F",
"I  c #9C0907",
"U  c #92140F",
"Y  c #8B1711",
"T  c #941916",
"R  c #A50202",
"E  c #A90000",
"W  c #AD0A0A",
"Q  c #A30A09",
"!  c #BC1800",
"~  c #B41414",
"^  c #B41F1F",
"/  c #A91414",
"(  c #86241B",
")  c #BB2604",
"_  c #852F23",
"`  c #952822",
"'  c #B4372E",
"]  c #A33939",
"[  c #BD2828",
"{  c #DE3B00",
"}  c #CD3205",
"|  c #E13F00",
" . c #CE3030",
".. c #82451D",
"X. c #86481F",
"o. c #924D1F",
"O. c #844821",
"+. c #884927",
"@. c #924D24",
"#. c #89522E",
"$. c #94532B",
"%. c #9A562B",
"&. c #8B5632",
"*. c #885736",
"=. c #975935",
"-. c #8E4D33",
";. c #A45B2D",
":. c #AA5F2F",
">. c #A55F31",
",. c #BA4935",
"<. c #93663D",
"1. c #AD6232",
"2. c #A7643A",
"3. c #B26533",
"4. c #B96D3B",
"5. c #AF622E",
"6. c #E24100",
"7. c #CA4C29",
"8. c #995A53",
"9. c #8D5446",
"0. c #A75656",
"q. c #866149",
"w. c #846A5C",
"e. c #986A52",
"r. c #A46943",
"t. c #AD6C54",
"y. c #856664",
"u. c #926A65",
"i. c #8B7269",
"p. c #927A75",
"a. c #8B7574",
"s. c #A46965",
"d. c #B3736C",
"f. c #A67A77",
"g. c #B87A76",
"h. c #AE7068",
"j. c #CA504D",
"k. c #CC7C47",
"l. c #C47E52",
"z. c #D17152",
"x. c #C77466",
"c. c #C17C74",
"v. c #D26C67",
"b. c #8E867D",
"n. c #B3807C",
"m. c #C68479",
"M. c #D48A77",
"N. c #E1827E",
"B. c #D08756",
"V. c #06BC97",
"C. c #50AF93",
"Z. c #68B39A",
"A. c #08CBA4",
"S. c #0DD7AF",
"D. c #29CEAC",
"F. c #18E5BC",
"G. c #5FCEB4",
"H. c #58C2AD",
"J. c #6DC9B6",
"K. c #2AFFD5",
"L. c #27FAD0",
"P. c #34FFD7",
"I. c #25F5CC",
"U. c #78DEC3",
"Y. c #4DFFDC",
"T. c #4EF7D5",
"R. c #7FEFD9",
"E. c #62FFE0",
"W. c #858484",
"Q. c #8A8B8A",
"!. c #8B8885",
"~. c #988986",
"^. c #949494",
"/. c #9A9A9A",
"(. c #9B9590",
"). c #9D9086",
"_. c #A58D8B",
"`. c #BA8D88",
"'. c #BD918D",
"]. c #AC9494",
"[. c #B69796",
"{. c #A3A3A3",
"}. c #ACACAC",
"|. c #AFA8A4",
" X c #B7A8A6",
".X c #B4B4B4",
"XX c #BCBCBC",
"oX c #BAB9B8",
"OX c #ACB5B1",
"+X c #92BEB5",
"@X c #C78A84",
"#X c #DC8B87",
"$X c #D6948D",
"%X c #CA9894",
"&X c #D39790",
"*X c #E79E99",
"=X c #E58783",
"-X c #D8A299",
";X c #CEA29F",
":X c #E5A09B",
">X c #C8A8A5",
",X c #D7A6A4",
"<X c #C6B6B6",
"1X c #DABCB8",
"2X c #E9ADA9",
"3X c #F8ADA9",
"4X c #F9B2AC",
"5X c #E6BBB8",
"6X c #FDB5B3",
"7X c #FFBBBB",
"8X c #F9B8B5",
"9X c #E8B2AB",
"0X c #B5C2BF",
"qX c #95C5BB",
"wX c #EBC3BE",
"eX c #FDC4BD",
"rX c #F6C5BD",
"tX c #A1CBC2",
"yX c #85F6DF",
"uX c #8DFAE4",
"iX c #9EFFEC",
"pX c #A2FFEC",
"aX c #AAFFEE",
"sX c #83D7C6",
"dX c #C4C4C4",
"fX c #CACACA",
"gX c #D2C8C7",
"hX c #D2D2D2",
"jX c #DFDEDE",
"kX c #E8C4C2",
"lX c #FEC3C2",
"zX c #FDCCC5",
"xX c #F7CAC6",
"cX c #FED2CE",
"vX c #FFD4D1",
"bX c #FBDCD9",
"nX c #EDDCDA",
"mX c #FFE3DF",
"MX c #F6E8E7",
/* pixels */
"                                      9 7 7 7                                                                                   ",
"                          0 0 q q q q q q q q q b r                                                                             ",
"                      0 q q q q q q w 0 q q 0 b O.O.M                                                                           ",
"                  9 q q q q 0 q w 0 0 0 q q b O.O.O...t                                                                         ",
"                9 0 q q 0 0 0 0 0 9 0 0 w b O.O...X.n 9 4                                                                       ",
"              7 0 0 9 0 9 0 9 9 0 9 9 w b b X.X.X.b 9 9 9 1                                                                     ",
"              9 9 0 9 9 9 9 9 9 9 9 n O.O.t X.X.0 9 9 9 9 4                                                                     ",
"            9 9 9 9 9 4 9 9 9 0 r b X.X.O.-.n 9 4 4 4 4 4 4 1                                                                   ",
"            M n r w q c r r M ....X.X.X.n 8.M 3 4 4 3 3 4 3 1                                                                   ",
"          w b O.O.O.X.8.=.O.X.....X.r 4 4 c.8.3 4 3 3 3 3 1 3                                                                   ",
"          r O.O.O.X.X.t.c.X...q 8 4 3 3 4 #Xg.3 3 3 3 3 3 3 < ,                                                                 ",
"          e w r r r r m.3XC 3 3 k 3 3 < 1 *X*Xe 1 1 < < < < < 2                                                                 ",
"          1 3 3 3 3 1 $X4X&Xe < 9.j 3 < < :X4X9.< < < < < < 6 $                                                                 ",
"          1 3 3 3 3 j n.$X4X&XN 5 m.< < < $X8Xn.< < < , < < : $                                                                 ",
"          < < < < + g %X%Xf.f.-Xn.2Xh.< < s.2Xf., @ @ o > : : $                                                                 ",
"          6 < < < < A f.y.D a.G 2XeXrXg.5 m w.'.F , 6 6 o : : $                                                                 ",
"          > < < < O . f 8._ ; + S lXeXeX%Xf O 2 - O . O : : : $                                                                 ",
"          $ : > < X J m.gXj.! m.1XlXzXzXrX~.d.gX! ' }.. o : : $                                                                 ",
"          $ % : : 5 b.m.7.} } M.bXzXzXzXzXnX7.c.} ) jX@ : : : $                                                                 ",
"            : : : s.1X>X} | | M.bXcXcXcXzXMX7.{ { } gX> : : :                                                                   ",
"            : : : ;XcXbXg.*Xx.kXcXcXcXcXcXMX%Xc.z.z.bX`.: : :                                                                   ",
"            $ : V kXcXvX8Xd.;XcXcXcXlXxXcXcXbX@Xc.5XvXcXu.: %                                                                   ",
"            $ : 8.cXvXbXvXcXcXcXcXcXlXcXcXcXcXcXcXbXmXvX@X* =                                                                   ",
"              = u ;XcXvXvXcXcXcXcXvXcXcXvXcXcXcXvXvXvX5Xa *                                                                     ",
"              & 2 A 5XcXvXvXcX].b._.~.~.p.a.>XvXvXvXkX9.* *                                                                     ",
"              & u u v %XvXbXvXcX[.f # f y.5XvXvXvX;Xf & & & &                                                                   ",
"              2 i i u i A '.kXvXvXcXzXcXvXvXkX`.A u u u u u &                                                                   ",
"                s a s a p p C u.'.5XcXwX'.u.B a a a a a a p =                                                                   ",
"                a s k s s s A y.y.9.lX=XA p.y.A a a a p p p 2                                                                   ",
"                s l l B a._.].]._.v.cX3Xs.].].]._.y.k k s s u                                                                   ",
"                p z s _.<X[.].]. X[ v.j.0.].].].<XgXy.k l k i                                                                   ",
"                a z p p._._.<X X<XQ R R ] 1X<X[.s.a.D l v v p                                                                   ",
"                  z h z V V T d.0.E E E Q h.] R E Y N N V z p                                                                   ",
"                  z k z C c R E E E E E E E R R E E Y c V l                                                                     ",
"                  z h z A ( Q E E E R R E E W Y T E E Y V h                                                                     ",
"                  k   z C U / ~ W  .W [ ^ W ^ y V ( R R y                                                                       ",
"                  2   h V Q R Q ~ W E E ~ ~ _ h j C _ ; t                                                                       ",
"                        x Q R U R E E E E I V x   C C $.1.=.#.                                                                  ",
"                        > ; ; Y E E E E E Q C k   +.3.>.*.+.                                                                    ",
"                        ..t 0 ` j.N.=X=Xv.' _ M 1.2.=.M                                                                         ",
"                        ;.%.e d.8X4X3X3X4X$X=.5.%.&.M x                                                                         ",
"                        0 n w e.&X2X%X3Xm.3.;.$.M     p                                                                         ",
"                        n o.X.@.$.-.-.>.:.$.#.x =   Q.                                                                          ",
"                        M 5.5.+.O.@.:.;.$.@.+.    W.J                                                                           ",
"                          B.B.&.;.>.$.=.$.%.8.9X  /.                                                                            ",
"                          G w.L *.#.2.l.%.$.%X9X8.                                                                              ",
"                        H K Q.^.!.C >.=.%.s.#X .j.                                                                              ",
"                      3.>.G ^./.!.N +._ h j. .v.lXlX                                                                            ",
"                  3.=.M Z C.C.C.D.        g.7XlXlX7X                                                                            ",
"              z M N m b.P.K.K.K.L.        Q.,X7X7X7X                                                                            ",
"              g m m J.aXP.K.K.K.K.V.    ^.    7X7X6X                                                                            ",
"                    yXiXK.K.K.K.K.S.            6X6X                                                                            ",
"                    uXpXK.K.K.K.K.S.            4X*X*.                                                                          ",
"                    uXaXP.K.K.K.K.I.            1 1 0                                                                           ",
"                  P uXaXE.K.K.K.K.L.A.            ..o...                                                                        ",
"                  m J.aXaXY.K.K.K.K.S.            b @.r                                                                         ",
"                  +.Z.iXpXiXT.L.K.K.F.A.          M o.o.3                                                                       ",
"                #.3.<.G.iXaXiXE.K.K.K.A.D.tXfXhXhXC 4.4.+.i.                                                                    ",
"          hXgX).2.k.5.w.qXsXsXuXY.P.K.F.A.H.XXdXfXG r.B.C |.hXhXhX                                                              ",
"        fXfXdX.XF r.*.b.<XoXqX+XJ.G.G.J.H.oXoXXX0X.Xw.q.).fXfXhXhXhX                                                            ",
"        fXfXfXdXoX|..XXXoXoXoX.X.XOXOX}..X.XoXoX0X0X<XdXdXdXfXfXfXfX                                                            ",
"          .XXXfXfXfXdXdXdXXXXX0X<X0XXXXXXX<X0XXX<XdXdXdXfXfXfX<X.X{.                                                            ",
"            /.{.}..XoXdXfXgXfXdXdXdXfXdXfXdXfXdXdXdXXX0XoX}.{./.                                                                ",
"                    /././././.{.{.{.{.{.{.{.{./.{././.(.                                                                        "
};
