/* XPM */
static char *_227bd19dd9140ddc31b3a7bbb1e7701PQ5hgcewC2eU12ni[] = {
/* columns rows colors chars-per-pixel */
"64 64 72 1 ",
"  c None",
". c #070007",
"X c #1F0206",
"o c #120613",
"O c #1D131E",
"+ c #1F181F",
"@ c #221814",
"# c #311210",
"$ c #231B24",
"% c #281820",
"& c #3D2923",
"* c #2E2533",
"= c #332C35",
"- c #352D36",
"; c #352E36",
": c #31313E",
"> c #3B343B",
", c #400B0B",
"< c #45090F",
"1 c #411E05",
"2 c #641318",
"3 c #4B2B13",
"4 c #57352F",
"5 c #75502D",
"6 c #293D4B",
"7 c #453E47",
"8 c #463E47",
"9 c #4A414B",
"0 c #4A444B",
"q c #4D464D",
"w c #584C46",
"e c #4A5057",
"r c #595050",
"t c #585058",
"y c #5C575D",
"u c #665D66",
"i c #6C6262",
"p c #6D6262",
"a c #686169",
"s c #706970",
"d c #756E76",
"f c #726B7E",
"g c #7B7575",
"h c #7E767E",
"j c #7F797F",
"k c #821616",
"l c #831E20",
"z c #9E3E37",
"x c #A12929",
"c c #9A6F37",
"v c #83534E",
"b c #94605A",
"n c #877B74",
"m c #877B75",
"M c #AA8550",
"N c #D28560",
"B c #EAA377",
"V c #5187B3",
"C c #50D4EC",
"Z c #8F8484",
"A c #8D8789",
"S c #8C868C",
"D c #918789",
"F c #9C9191",
"G c #A99D97",
"H c #B6AAA4",
"J c #B0A9AA",
"K c #BEB6B8",
"L c #A8C4B1",
"P c #FDD5B7",
"I c #FBECE6",
"U c #F2F8F9",
/* pixels */
"                                                                ",
"                                                                ",
"                                                                ",
"                                                                ",
"                                                                ",
"                                                                ",
"                                                                ",
"                                                                ",
"                              X                                 ",
"                             XlXXXX                             ",
"                            X<xl<2<XXXXX                        ",
"                           XX2lxl2lll22<XX                      ",
"                          X<2lxlxxxl22<X<<<X                    ",
"                         XX2lxxxxlxxl<l2<2X                     ",
"                        XXlxxxxxx<lxx2<x2X<X                    ",
"                       X<2xxl2x2xxxlxx22x22<X                   ",
"                     XX<2xx2<lxX<xxxlxx2<x2X<                   ",
"                      XX<xx<2lx<2<2x<<2l2<l2X                   ",
"                       XXx<X<Xx2lx<xlll<l2<<X                   ",
"                       Xl2XPXPX<2xl<lxl2l2lX                    ",
"                       X<XPPXPPX<lx2<x2XlxlX                    ",
"                        XXPPPPPPX2x2lx<XxxlX                    ",
"                        XPPPPPPPX<lX<lXX2x2X                    ",
"                        XPPPPPIIPX2XX<PX<l<                     ",
"                        %BPPPBzzNBX<BXPXX2X                     ",
"                         %PPP%%CCBPXPPPPX<X                     ",
"                         %PPPV%UUPPBBPNz%X                      ",
"                         %PPP66UPPBBBzz%                        ",
"                         %BPPPPPPPPPBN%%                        ",
"                          %NPPPPPPPBNz###.                      ",
"                          ..zBPPPPBNz#=m;g.                     ",
"                          #33zzzzzzz#0FhFjr.                    ",
"                         #3c5########tKdHuA.                    ",
"                         #5cc555555c#ZsZSFs.                    ",
"                         #5ccc5555cc#JaGtJa.                    ",
"                         #5ccccccccc#y.sZjZ>.                   ",
"                         #5ccccccc5c#$g.GtJ=.                   ",
"                         #5McccccM55c#+.0ZsZ.                   ",
"                        .#3MMMMMMc553#.w8Jam.                   ",
"                      %.r#35cMMMc5533oooo9Z>.                   ",
"                     %NN.0#e55555333ozNBPoD.                    ",
"                    %zBBz.#:eLLLeee%NPPPPP.                     ",
"                    %zBzP.#O:L*L:::%PPIPPN.                     ",
"                    %zzzB.#OOfffOOO%zPPPP%                      ",
"                    %zNNz.#311#11111%zPPz%                      ",
"                     %%%% #355#555339%%%%                       ",
"                          #######353####                        ",
"                          .>pyiq########                        ",
"                          ,..$A8m;GtG;w.                        ",
"                           ,k....p0Zjr%%                        ",
"                           ,%%%%,.%%%%&%                        ",
"                           %&444% %&44&%                        ",
"                         %%@4v44% %&444&%                       ",
"                        %444vv44%%&@@44@%                       ",
"                        %bbvvv4&%&&4vv44%                       ",
"                        %%%%%%%%@vvvvv@@%                       ",
"                               %4bbb4@@%                        ",
"                                %%%%%%%                         ",
"                                                                ",
"                                                                ",
"                                                                ",
"                                                                ",
"                                                                ",
"                                                                "
};
