/* XPM */
static char *c1ea41bb53da479bb5f31f7816377081RerIwcYu1DBVLicn[] = {
/* columns rows colors chars-per-pixel */
"64 64 69 1 ",
"  c None",
". c #1F0206",
"X c #120613",
"o c #1D131E",
"O c #221814",
"+ c #311210",
"@ c #231B24",
"# c #281820",
"$ c #3D2923",
"% c #2E2533",
"& c #332C35",
"* c #352D36",
"= c #352E36",
"- c #31313E",
"; c #39333A",
": c #3B343B",
"> c #400B0B",
", c #45090F",
"< c #411E05",
"1 c #641318",
"2 c #4B2B13",
"3 c #57352F",
"4 c #75502D",
"5 c #293D4B",
"6 c #453E47",
"7 c #4A444B",
"8 c #4D464D",
"9 c #4A5057",
"0 c #595050",
"q c #585058",
"w c #5C565D",
"e c #5C575D",
"r c #665D66",
"t c #6C6262",
"y c #6D6262",
"u c #686169",
"i c #756962",
"p c #706970",
"a c #726B7E",
"s c #7B7575",
"d c #7E767E",
"f c #7F797F",
"g c #821616",
"h c #9A1A1A",
"j c #831E20",
"k c #9E3E37",
"l c #943B3B",
"z c #A12929",
"x c #9A6F37",
"c c #83534E",
"v c #94605A",
"b c #877B74",
"n c #AA8550",
"m c #D28560",
"M c #EAA377",
"N c #50D4EC",
"B c #8F8484",
"V c #8D8787",
"C c #8D8789",
"Z c #8C868C",
"A c #9C9191",
"S c #A99D97",
"D c #B6AAA4",
"F c #B0A9AA",
"G c #BEB6B8",
"H c #A8C4B1",
"J c #FDD5B7",
"K c #FBECE6",
"L c #F2F8F9",
/* pixels */
"                                                                ",
"                                                                ",
"                                                                ",
"                                                                ",
"                                                                ",
"                                                                ",
"                                                                ",
"                                   .                            ",
"                               ....j.                           ",
"                          .....,1,jz,.                          ",
"                        ..,11jjj1jzj1..                         ",
"                      .,,,.,11jzzzjzj1,.                        ",
"                       .1,1j,jzzjzzzzj1..                       ",
"                      .,.1z,1zzj,zzzzzzj..                      ",
"                     .,11z11zzjzzz1z1jzz1,.                     ",
"                     ,.1z,1zzjzzz,.zj,1zz1,..                   ",
"                     .1j,1j1,,z1,1,zj1,zz,..                    ",
"                     .,,1j,jjjz,zj1z.,.,z..                     ",
"                      .j1j1jzj,jz1,.J.J.1j.                     ",
"                      .jzj.1z,1zj,.JJ.JJ.,.                     ",
"                      .jzz.,zj1z1.JJJJJJ..                      ",
"                      .1z1..j,.j,.JJJJJJJ.                      ",
"                       ,j,.J,..1.JJJJJJJJ.                      ",
"                       .1..J.M,.JJKKJJJJM#                      ",
"                       .,.JJJJ.JMmkkMJJJ#                       ",
"                        .#kmJMMJMNN##JJJ#                       ",
"                          #kkMMMJJL55JJJ#                       ",
"                          ##mMJJJJJJJJJM#                       ",
"                         +++kmMJJJJJJJm#                        ",
"                        X&V*+kmMJJJJMk##                        ",
"                       X:AZAf+kkkkkkk22+                        ",
"                       X6GrDq++++++++4x2+                       ",
"                      X7ZdAfB+x444444xx4+                       ",
"                      X@SuFqF+xx4444xxx4+                       ",
"                     X7BpBbXe+xxxxxxxxx4+                       ",
"                     X@SrFXi++x4xxxxxxx4+                       ",
"                     XBfV:X++x44nxxxxxn4+                       ",
"                     XCqS6sX+244xnnnxnn2+##                     ",
"                     X8BdBe0###44xnnnx42+mm#                    ",
"                      XirGqXMmk#2444449+mmm#                    ",
"                       X0pXJJJJm#9HHH9-+mmm#                    ",
"                        X@XJJKJJ#-H%H-o+mmk#                    ",
"                         +XJJJJk#oaaaoo+mm#                     ",
"                         +XkJJk#h<<+<<2+##                      ",
"                         ++:###l444+442+                        ",
"                         ++<+2222+++++++                        ",
"                          ++++++++8tet:X                        ",
"                          Xi;SqS*b6C@XX                         ",
"                          ##0bZ7tXXXXg>                         ",
"                          #$####X######                         ",
"                          #$33$# #333$#                         ",
"                         #$333## #33c3O##                       ",
"                         #O33OO###33cc333#                      ",
"                         #33cc3$##$3ccvvc#                      ",
"                         #OOcccccO########                      ",
"                          #OO3vvv3#                             ",
"                           #######                              ",
"                                                                ",
"                                                                ",
"                                                                ",
"                                                                ",
"                                                                ",
"                                                                ",
"                                                                "
};
