/* XPM */
static char *_c53ce1ae58a45a198e70e6eb0a1bb97kZsXIqlpS8Cxmoyt[] = {
/* columns rows colors chars-per-pixel */
"64 64 66 1 ",
"  c None",
". c #070007",
"X c #1F0206",
"o c #120613",
"O c #171018",
"+ c #1D131E",
"@ c #241213",
"# c #221814",
"$ c #311210",
"% c #231B24",
"& c #281820",
"* c #3D2923",
"= c #332C35",
"- c #352D36",
"; c #352E36",
": c #31313E",
"> c #3B343B",
", c #45090F",
"< c #411E05",
"1 c #641318",
"2 c #4B2B13",
"3 c #57352F",
"4 c #704325",
"5 c #75502D",
"6 c #453E47",
"7 c #463E47",
"8 c #4A444B",
"9 c #4F464F",
"0 c #584C46",
"q c #4D4A5D",
"w c #4A5057",
"e c #595050",
"r c #585058",
"t c #5C565D",
"y c #5C575D",
"u c #6C6262",
"i c #6D6262",
"p c #686169",
"a c #756962",
"s c #706970",
"d c #756E76",
"f c #7B7575",
"g c #7E767E",
"h c #7F797F",
"j c #821616",
"k c #831E20",
"l c #9E3E37",
"z c #A12929",
"x c #9A6F37",
"c c #83534E",
"v c #94605A",
"b c #A77459",
"n c #877B74",
"m c #877B75",
"M c #AA8550",
"N c #D28560",
"B c #EAA377",
"V c #8F8484",
"C c #8D8789",
"Z c #8C868C",
"A c #9C9191",
"S c #A99D97",
"D c #B6AAA4",
"F c #B0A9AA",
"G c #FDD5B7",
"H c #FBECE6",
/* pixels */
"                                                                ",
"                                                                ",
"                                                                ",
"                                                                ",
"                                                                ",
"                                                                ",
"                                                                ",
"                                                                ",
"                                                                ",
"                             X,1X                               ",
"                         XX,1,1k11,XX                           ",
"                       XXXXX,1kzk1kk1,X                         ",
"                     XX,1k,X1kzzkkzzkk1X                        ",
"                      XX,1kzk1zzkzz1,X1,X                       ",
"                      X,kzzzz1z1zzk,kzk1X                       ",
"                     X,kzk1kzzzzzzz,1kzk,X                      ",
"                    X,kk1X1zkkzzk1zk,,1k1,X                     ",
"                    ,1k1X,z11Xkzz,1zkX,k,11X                    ",
"                   X1,XX,k,XX1kzz,X1k,X,,Xk,X                   ",
"                   X,X,,1,X,1,z1z1,X1k,XX,X1X                   ",
"                    X,1X,X,1X1k,zk,1X1,XX,X,X                   ",
"                    X1X,X,1X,k1XkkX1,X1X,X,X                    ",
"                    &XBX,,XX,1,Xk1X11,X,,BX&                    ",
"                    &BNB,X,,X,XX1,X,11X,BNB&                    ",
"                    &BNB,X,,XXXX,X,XX,,,BNB&                    ",
"                     &&NXBX,XX,XX,,XXXXNN&&                     ",
"                       &lBBX,X,X,,,X,BBl&                       ",
"                        &NBXB,,X,,X,,BN&                        ",
"                     ....lNBBBX,,XBBBNl....                     ",
"                    .a;$2$llBBBBXBBBll$2$m%.                    ",
"                   .egA$55$$bbbbbbbb$$22$gA8.                   ",
"                   .FdD$x555$$$$$$$$2225$dDr.                   ",
"                  .esCm$xxxx522222222255$VhV>.                  ",
"                  .f6Sr$xMMxx55222225555$SrC=.                  ",
"                  .yu>e$5xMMxx5555555x52$>eyi.                  ",
"                 .a-C60$5xxMMxxxxxxxx552$Om;C=.                 ",
"                 .8V9e.$255xxMMxxxx5552<$.8ise.                 ",
"                 .;F6. $<2555xxxx555222<$ .Cpm.                 ",
"                 .AZi. $q<<2555555222<<q$ .yAg.                 ",
"                 .Fda.&.:ww<<222222<<ww:.&.fda.                 ",
"                 ....B&.+:qwwwwwwwwwwq:+.&B...&                 ",
"                 &BHGGl.++::::::::::::++$lGGHB&                 ",
"                 &NGGGB.$$@+++++++++++@$$BGGGN&                 ",
"                 &lGGGG.$2<<<<<<<<<<<<2$$GGGGl&                 ",
"                  &NGBB$$22444444444422$$BBGN&                  ",
"                   &&&$$$$225555555522$$$$&&&                   ",
"                      .8V$$$$$$$$$$$$$$he.                      ",
"                      .%Srm;m;C6m;C6a;Srf.                      ",
"                      o..eyiyi9iyi9iyi8..o                      ",
"                      &&j..;;C6m;C6m%..j&&                      ",
"                     &**&&&&........&&&&**&                     ",
"                    &**#333&        &333#**&                    ",
"                    &**3cc3&        &3cc3**&                    ",
"                    &##cvc#&        &#cvc##&                    ",
"                    &#3cvc#&        &#cvc3#&                    ",
"                     &*3c#*&        &*#c3*&                     ",
"                      &&&&&          &&&&&                      ",
"                                                                ",
"                                                                ",
"                                                                ",
"                                                                ",
"                                                                ",
"                                                                ",
"                                                                "
};
